Coordinates
version=1
nRows=24
nColumns=38
inDegrees=no

Units are S.I. units (second, meters, Newtons, ...)
If the header above contains a line with 'inDegrees', this indicates whether rotational values are in degrees (yes) or radians (no).

endheader
time	pelvis_tilt	pelvis_list	pelvis_rotation	pelvis_tx	pelvis_ty	pelvis_tz	hip_flexion_r	hip_adduction_r	hip_rotation_r	knee_angle_r	ankle_angle_r	subtalar_angle_r	mtp_angle_r	hip_flexion_l	hip_adduction_l	hip_rotation_l	knee_angle_l	ankle_angle_l	subtalar_angle_l	mtp_angle_l	lumbar_extension	lumbar_bending	lumbar_rotation	arm_flex_r	arm_add_r	arm_rot_r	elbow_flex_r	pro_sup_r	wrist_flex_r	wrist_dev_r	arm_flex_l	arm_add_l	arm_rot_l	elbow_flex_l	pro_sup_l	wrist_flex_l	wrist_dev_l
1.59	3.04457	1.27329	-1.27703	0.50365	1.66236	0.934008	0.0780554	-0.0229689	-0.229586	0.178163	-0.210902	0	0	-0.523599	-0.118861	-0.407951	0.293432	-0.0749734	0	0	-0.488644	0.146049	-0.238369	-0.213762	-0.235353	-0.193547	0.907734	0.38578	0	0	0.13357	-0.397844	0.0851945	1.05314	1.40805	0	0
1.6	3.03809	1.27561	-1.26729	0.503529	1.67348	0.93303	0.0770003	-0.0172693	-0.225512	0.183537	-0.218684	0	0	-0.523599	-0.127958	-0.413776	0.310341	-0.0729795	0	0	-0.486475	0.149473	-0.240671	-0.213165	-0.235304	-0.192688	0.906525	0.38509	0	0	0.130366	-0.393724	0.0786254	1.05949	1.4112	0	0
1.61	3.03035	1.27768	-1.25658	0.503455	1.68486	0.932167	0.0796531	-0.0117757	-0.221583	0.205592	-0.224897	0	0	-0.523599	-0.137604	-0.41984	0.327889	-0.0727383	0	0	-0.48393	0.153122	-0.243192	-0.213015	-0.23505	-0.192575	0.905298	0.38438	0	0	0.124909	-0.389584	0.0715748	1.06574	1.4138	0	0
1.62	3.02212	1.27973	-1.2455	0.503476	1.69661	0.931361	0.0844398	-0.00634618	-0.218184	0.238654	-0.227094	0	0	-0.523599	-0.147425	-0.4256	0.345908	-0.0743328	0	0	-0.480451	0.156631	-0.246182	-0.213585	-0.234225	-0.193278	0.903743	0.383207	0	0	0.117215	-0.385488	0.0641956	1.07147	1.41588	0	0
1.63	3.01456	1.28157	-1.23494	0.503549	1.70875	0.930648	0.0886434	-0.000658403	-0.216486	0.273578	-0.223258	0	0	-0.523599	-0.157099	-0.430393	0.364846	-0.0778824	0	0	-0.47621	0.159838	-0.249759	-0.215246	-0.233027	-0.193879	0.901806	0.382362	0	0	0.107541	-0.381289	0.0568588	1.07638	1.41744	0	0
1.64	3.00664	1.28274	-1.22356	0.503643	1.7212	0.930119	0.0901471	0.00572526	-0.216082	0.301019	-0.215175	0	0	-0.523599	-0.167501	-0.434096	0.385169	-0.0836704	0	0	-0.471711	0.163297	-0.253869	-0.217572	-0.231987	-0.193689	0.899103	0.382796	0	0	0.0966627	-0.377013	0.0501743	1.07978	1.4186	0	0
1.65	2.99713	1.28271	-1.21023	0.503732	1.73387	0.929823	0.0883835	0.0124803	-0.21531	0.317306	-0.209974	0	0	-0.523599	-0.17925	-0.436708	0.407638	-0.0919149	0	0	-0.467269	0.167469	-0.258458	-0.21995	-0.231085	-0.193243	0.895451	0.383898	0	0	0.0848987	-0.372816	0.0445495	1.08137	1.41952	0	0
1.66	2.9879	1.28157	-1.19728	0.50381	1.7468	0.929741	0.0836413	0.018644	-0.214083	0.325452	-0.213618	0	0	-0.523599	-0.191345	-0.437057	0.432076	-0.102941	0	0	-0.462811	0.171705	-0.263253	-0.222835	-0.230284	-0.193024	0.891426	0.385243	0	0	0.0722231	-0.368659	0.0400564	1.08109	1.42042	0	0
1.67	2.98057	1.27922	-1.1865	0.503902	1.75997	0.929909	0.0753128	0.0249359	-0.215441	0.329889	-0.225511	0	0	-0.523599	-0.203051	-0.434046	0.458218	-0.11726	0	0	-0.4587	0.175599	-0.267975	-0.226668	-0.229573	-0.193321	0.887677	0.386519	0	0	0.0587668	-0.364632	0.0367159	1.07913	1.42134	0	0
1.68	2.97429	1.27503	-1.17718	0.504062	1.77326	0.930438	0.0635538	0.0317861	-0.219424	0.333113	-0.241472	0	0	-0.523599	-0.214904	-0.427195	0.48664	-0.135515	0	0	-0.456133	0.179675	-0.272041	-0.231021	-0.229136	-0.193855	0.884333	0.387891	0	0	0.0450056	-0.360939	0.0347096	1.07579	1.42243	0	0
1.69	2.96731	1.26857	-1.16845	0.504344	1.78659	0.931363	0.0494209	0.0397806	-0.224024	0.338455	-0.256859	0	0	-0.523599	-0.227192	-0.417242	0.517947	-0.158076	0	0	-0.455681	0.184368	-0.274592	-0.235963	-0.228942	-0.194836	0.881877	0.388896	0	0	0.0310864	-0.357536	0.033857	1.07111	1.42386	0	0
1.7	2.9591	1.2598	-1.1607	0.504844	1.79984	0.932597	0.0346027	0.0487852	-0.226205	0.348605	-0.269947	0	0	-0.523599	-0.239442	-0.403472	0.552857	-0.185016	0	0	-0.457479	0.189495	-0.274745	-0.241877	-0.229047	-0.195863	0.881296	0.389968	0	0	0.017233	-0.354377	0.03402	1.06526	1.42567	0	0
1.71	2.94971	1.24873	-1.15424	0.505626	1.81299	0.93404	0.019347	0.0590088	-0.225238	0.364053	-0.279254	0	0	-0.523599	-0.251494	-0.385294	0.591803	-0.216006	0	0	-0.461487	0.194985	-0.272418	-0.247438	-0.228749	-0.198906	0.881853	0.389377	0	0	0.00333814	-0.351617	0.0348006	1.05874	1.42777	0	0
1.72	2.95273	1.20674	-1.17208	0.50685	1.82775	0.937006	-0.026031	0.0764346	-0.223663	0.38931	-0.283605	0	0	-0.523599	-0.254787	-0.344387	0.609543	-0.248092	0	0	-0.479165	0.2001	-0.267728	-0.253247	-0.231166	-0.207315	0.883804	0.38611	0	0	-0.0168689	-0.348944	0.0347271	1.05088	1.43012	0	0
1.73	2.94684	1.19301	-1.16916	0.50773	1.83987	0.938845	-0.0458786	0.0863261	-0.224736	0.402047	-0.283889	0	0	-0.523599	-0.266077	-0.320353	0.656511	-0.282911	0	0	-0.491338	0.206728	-0.26226	-0.259511	-0.229818	-0.214277	0.891	0.383161	0	0	-0.0288823	-0.347484	0.0364389	1.04814	1.43121	0	0
1.74	2.89032	1.1915	-1.11051	0.508143	1.85125	0.936979	-0.0395879	0.108966	-0.233432	0.424971	-0.26951	0	0	-0.479787	-0.322996	-0.320361	0.857019	-0.381158	0	0	-0.487272	0.232998	-0.247582	-0.284877	-0.227583	-0.240241	0.925165	0.380426	0	0	-0.0324565	-0.347101	0.0549418	1.04718	1.42598	0	0
1.75	2.91877	1.17817	-1.14867	0.50923	1.86325	0.940952	-0.0718599	0.10584	-0.235939	0.423409	-0.270637	0	0	-0.523599	-0.287643	-0.265187	0.771216	-0.396482	0	0	-0.506027	0.223929	-0.238047	-0.285076	-0.227575	-0.239155	0.919174	0.385141	0	0	-0.0398824	-0.344709	0.0589245	1.03491	1.42687	0	0
1.76	2.91914	1.16518	-1.15043	0.509812	1.87461	0.942597	-0.100513	0.11361	-0.247164	0.416907	-0.271548	0	0	-0.523536	-0.293586	-0.233996	0.823459	-0.430568	0	0	-0.519993	0.229364	-0.231894	-0.293268	-0.227994	-0.243354	0.930112	0.391978	0	0	-0.0491521	-0.345296	0.0655772	1.03193	1.42415	0	0
1.77	2.91015	1.16114	-1.14522	0.51068	1.88608	0.943399	-0.117977	0.121565	-0.252076	0.41485	-0.266723	0	0	-0.495436	-0.300977	-0.211733	0.885639	-0.446007	0	0	-0.523233	0.23342	-0.224643	-0.299347	-0.22716	-0.249439	0.93616	0.3942	0	0	-0.058349	-0.344242	0.0717658	1.0251	1.42129	0	0
1.78	2.90489	1.1582	-1.14433	0.511637	1.89737	0.944252	-0.135575	0.127823	-0.254526	0.412005	-0.258952	0	0	-0.466054	-0.306271	-0.192367	0.947426	-0.455657	0	0	-0.526337	0.234958	-0.217262	-0.303895	-0.225051	-0.256318	0.940411	0.394181	0	0	-0.0670284	-0.343539	0.0780369	1.01763	1.41796	0	0
1.79	2.90449	1.15582	-1.14935	0.512664	1.90844	0.945319	-0.153523	0.13198	-0.254575	0.4085	-0.250981	0	0	-0.437022	-0.308706	-0.176153	1.00632	-0.464349	0	0	-0.530097	0.233412	-0.209936	-0.30669	-0.222997	-0.261291	0.942115	0.395069	0	0	-0.0754145	-0.343111	0.0838942	1.00956	1.41433	0	0
1.8	2.90786	1.15386	-1.15908	0.513788	1.9193	0.946686	-0.171882	0.134679	-0.25175	0.403249	-0.244496	0	0	-0.408374	-0.308639	-0.162978	1.06132	-0.469446	0	0	-0.534316	0.229223	-0.202703	-0.307493	-0.220962	-0.264534	0.94072	0.396481	0	0	-0.0832372	-0.342865	0.0894396	1.00011	1.41084	0	0
1.81	2.91544	1.1517	-1.1715	0.514719	1.92976	0.948312	-0.191242	0.135627	-0.249332	0.396084	-0.240468	0	0	-0.379448	-0.306311	-0.149659	1.11273	-0.458882	0	0	-0.539529	0.2239	-0.197206	-0.306995	-0.218721	-0.267611	0.938017	0.398142	0	0	-0.0899675	-0.342759	0.0949127	0.989649	1.40738	0	0
1.82	2.92492	1.14929	-1.18468	0.515543	1.94004	0.950114	-0.211682	0.136132	-0.247115	0.386176	-0.238991	0	0	-0.350955	-0.302712	-0.137209	1.1591	-0.426527	0	0	-0.545048	0.2181	-0.192894	-0.305725	-0.215579	-0.271556	0.933862	0.399906	0	0	-0.0961247	-0.342617	0.0999461	0.978611	1.40354	0	0
